<svg xmlns="http://www.w3.org/2000/svg" xmlns:xlink="http://www.w3.org/1999/xlink" width="1110" height="225.5" viewBox="0 0 1110 225.5">
  <defs>
    <clipPath id="clip-path">
      <rect id="Rectangle_3039" data-name="Rectangle 3039" width="382" height="225" transform="translate(1144.246 87.593)" fill="#fff" stroke="#707070" stroke-width="1"/>
    </clipPath>
  </defs>
  <g id="Group_8252" data-name="Group 8252" transform="translate(-405 -5056)">
    <g id="Mask_Group_6" data-name="Mask Group 6" transform="translate(-11.247 4968.407)" clip-path="url(#clip-path)">
      <g id="Group_7936" data-name="Group 7936" transform="translate(1159.432 87.738)">
        <path id="Path_2864" data-name="Path 2864" d="M228.694,284.959a50.035,50.035,0,1,0,50.054,50.017A50.038,50.038,0,0,0,228.694,284.959Z" transform="translate(-178.64 -97.732)" fill="none" stroke="rgba(255,255,255,0.11)" stroke-width="1"/>
        <path id="Path_2865" data-name="Path 2865" d="M387.18,465.951A323.571,323.571,0,0,1,286.5,700.879l-19.8-19.8.428-.57a250.451,250.451,0,0,0,45.664-197.364c-1.177-6.312-2.639-12.523-4.281-18.693a244.974,244.974,0,0,0-74.883-175.1l55.617-55.617A323.155,323.155,0,0,1,387.18,465.951Z" transform="translate(-32.631 -233.736)" fill="none" stroke="rgba(255,255,255,0.11)" stroke-width="1"/>
        <path id="Path_2866" data-name="Path 2866" d="M331.938,418.4A245.49,245.49,0,0,0,224.553,258.469a226.062,226.062,0,0,1,53.694,146.842,227.205,227.205,0,0,1-2.781,35.535q-.965,6.1-2.248,12.092a247.192,247.192,0,0,1,4.064,44.811,245.435,245.435,0,0,1-9.916,69.283c-1.857,6.313-3.925,12.519-6.316,18.623L287.2,611.8a245.711,245.711,0,0,0,44.735-193.4Z" transform="translate(-56.734 -168.066)" fill="none" stroke="rgba(255,255,255,0.11)" stroke-width="1"/>
        <path id="Path_2867" data-name="Path 2867" d="M261.144,257.93c-1.634-.921-3.3-1.81-4.971-2.7l-22.563,22.545L213.48,297.924l-8.418,8.385a148.778,148.778,0,0,1,3.031,212.2l52.232,52.228a222.15,222.15,0,0,0,61.9-122.082,223.191,223.191,0,0,0,2.712-34.749A221.927,221.927,0,0,0,261.144,257.93Z" transform="translate(-108.485 -176.661)" fill="none" stroke="rgba(255,255,255,0.11)" stroke-width="1"/>
        <path id="Path_2868" data-name="Path 2868" d="M213.482,281.288,233.256,261.5l-28.194,28.176Z" transform="translate(-108.487 -160.027)" fill="none" stroke="rgba(255,255,255,0.11)" stroke-width="1"/>
        <line id="Line_83" data-name="Line 83" x1="52.23" y1="52.23" transform="translate(99.607 341.848)" fill="#ffd600" stroke="rgba(255,255,255,0.11)" stroke-width="1"/>
        <path id="Path_2869" data-name="Path 2869" d="M284.092,397.536l-23.4-23.4-26.151-26.151" transform="translate(-30.222 69.606)" fill="none" stroke="rgba(255,255,255,0.11)" stroke-width="1"/>
      </g>
    </g>
    <line id="Line_139" data-name="Line 139" x2="745" transform="translate(405 5281)" fill="none" stroke="#fff" stroke-width="1" opacity="0.2"/>
  </g>
</svg>
