<svg id="icon_action_x" data-name="icon / action / x" xmlns="http://www.w3.org/2000/svg" xmlns:xlink="http://www.w3.org/1999/xlink" width="20.146" height="20.146" viewBox="0 0 20.146 20.146">
  <defs>
    <clipPath id="clip-path">
      <path id="icon_x" data-name="icon / x" d="M19.714,17.7a1.391,1.391,0,0,1,0,2.015,1.391,1.391,0,0,1-2.015,0l-7.627-7.627L2.446,19.714a1.306,1.306,0,0,1-1.007.432,1.306,1.306,0,0,1-1.007-.432,1.391,1.391,0,0,1,0-2.015l7.627-7.627L.432,2.446a1.391,1.391,0,0,1,0-2.015,1.391,1.391,0,0,1,2.015,0l7.627,7.627L17.7.432a1.391,1.391,0,0,1,2.015,0,1.391,1.391,0,0,1,0,2.015l-7.627,7.627Z" fill="#fff"/>
    </clipPath>
  </defs>
  <path id="icon_x-2" data-name="icon / x" d="M19.714,17.7a1.391,1.391,0,0,1,0,2.015,1.391,1.391,0,0,1-2.015,0l-7.627-7.627L2.446,19.714a1.306,1.306,0,0,1-1.007.432,1.306,1.306,0,0,1-1.007-.432,1.391,1.391,0,0,1,0-2.015l7.627-7.627L.432,2.446a1.391,1.391,0,0,1,0-2.015,1.391,1.391,0,0,1,2.015,0l7.627,7.627L17.7.432a1.391,1.391,0,0,1,2.015,0,1.391,1.391,0,0,1,0,2.015l-7.627,7.627Z" fill="#fff"/>
</svg>
