<svg id="logo_yellew" xmlns="http://www.w3.org/2000/svg" width="255" height="75.261" viewBox="0 0 255 75.261">
  <g id="Group_1469" data-name="Group 1469" transform="translate(58.605 14.7)">
    <path id="Path_2856" data-name="Path 2856" d="M312.484,307.736a5.1,5.1,0,0,1-3.661-1.292,4.308,4.308,0,0,1-1.362-3.268V292.082q0-3.6-1.45-5.205a5.266,5.266,0,0,0-4.124-1.609,4.5,4.5,0,0,0-3.624,1.635,7.023,7.023,0,0,0-1.375,4.648v16.185h-2.049a4.787,4.787,0,0,1-3.512-1.292,4.393,4.393,0,0,1-1.312-3.268V291.094a13.237,13.237,0,0,1,.749-4.382,11.443,11.443,0,0,1,2.25-3.85,10.8,10.8,0,0,1,3.862-2.723,13.949,13.949,0,0,1,5.586-1.026,13.1,13.1,0,0,1,4.6.8,10.551,10.551,0,0,1,3.762,2.381,11.529,11.529,0,0,1,2.561,3.888,13.738,13.738,0,0,1,.95,5.269v16.287Z" transform="translate(-290.015 -269.615)" fill="#ff921c"/>
    <path id="Path_2857" data-name="Path 2857" d="M368.92,289.954a5.377,5.377,0,0,1-3.074,5.307q-3.074,1.481-9.872,1.481h-4.5A6.141,6.141,0,0,0,354,300.935a8.546,8.546,0,0,0,5.2,1.558,19.618,19.618,0,0,0,4.474-.544,8.555,8.555,0,0,0,3.975-2.09h.25v2.179a6.241,6.241,0,0,1-.488,2.482,4.865,4.865,0,0,1-1.662,2,9.026,9.026,0,0,1-3.1,1.355,19.317,19.317,0,0,1-4.724.494,13.517,13.517,0,0,1-9.372-3.825,13.978,13.978,0,0,1-4.2-10.234,18.84,18.84,0,0,1,1-6.319,14.031,14.031,0,0,1,2.787-4.8,11.978,11.978,0,0,1,4.274-3.027,13.891,13.891,0,0,1,5.461-1.052,11.656,11.656,0,0,1,4.136.748,10.919,10.919,0,0,1,3.524,2.14,10.355,10.355,0,0,1,2.462,3.42A10.8,10.8,0,0,1,368.92,289.954Zm-6.448-.836a3.672,3.672,0,0,0-1.412-3.166,6.3,6.3,0,0,0-3.811-1.039,5.279,5.279,0,0,0-2.275.494,6.184,6.184,0,0,0-1.824,1.292,5.586,5.586,0,0,0-1.2,1.887,7.029,7.029,0,0,0-.475,2.279l-.051.937h3.049q2.474,0,4.012-.152a10.507,10.507,0,0,0,2.424-.469,2.333,2.333,0,0,0,1.225-.836A2.206,2.206,0,0,0,362.472,289.118Z" transform="translate(-315.76 -269.615)" fill="#ff921c"/>
    <path id="Path_2858" data-name="Path 2858" d="M399.5,275.852a12.174,12.174,0,0,1,.113-1.786,7.142,7.142,0,0,1,.337-1.368,4.841,4.841,0,0,1,.613-1.165q.387-.545.937-1.229a7.465,7.465,0,0,1,1.562-1.381,3.035,3.035,0,0,1,1.662-.545h1.6v6.333h9.573v2.862a3.339,3.339,0,0,1-1,2.2,3.957,3.957,0,0,1-3.1,1.115h-5.473v10.942a5.465,5.465,0,0,0,1.125,3.888,4.3,4.3,0,0,0,3.224,1.153,9.578,9.578,0,0,0,4.949-.988h.275v2.482a4.182,4.182,0,0,1-1.512,3.419,7.032,7.032,0,0,1-4.536,1.241q-5.274,0-7.811-2.723t-2.537-7.637Z" transform="translate(-341.887 -264.605)" fill="#ff921c"/>
    <path id="Path_2859" data-name="Path 2859" d="M473.264,268.514a16.266,16.266,0,0,0-1.775-.43,12.243,12.243,0,0,0-2.224-.178,8.865,8.865,0,0,0-1.962.2,3.6,3.6,0,0,0-1.537.748,3.681,3.681,0,0,0-1.024,1.456,6.105,6.105,0,0,0-.375,2.305V275.1h7.872v1.925a3.144,3.144,0,0,1-.437,1.659,4.265,4.265,0,0,1-1.15,1.241,5.27,5.27,0,0,1-1.588.785,5.977,5.977,0,0,1-1.749.266h-2.949v18.668h-2.775a4.12,4.12,0,0,1-2.9-1.165,3.9,3.9,0,0,1-1.25-2.989V272.036a11.3,11.3,0,0,1,.538-3.23,9.548,9.548,0,0,1,1.824-3.344,10.609,10.609,0,0,1,3.324-2.622,10.847,10.847,0,0,1,5.061-1.064,5.982,5.982,0,0,1,3.762,1.165,3.862,3.862,0,0,1,1.512,3.242v2.33Z" transform="translate(-369.343 -261.524)" fill="#ff921c"/>
    <path id="Path_2860" data-name="Path 2860" d="M499.689,265.33a3.972,3.972,0,0,1-1.2,2.887,3.867,3.867,0,0,1-2.849,1.216,3.8,3.8,0,0,1-2.811-1.216,3.991,3.991,0,0,1-1.188-2.887,3.88,3.88,0,0,1,1.188-2.838,3.837,3.837,0,0,1,2.811-1.19,3.909,3.909,0,0,1,2.849,1.19A3.862,3.862,0,0,1,499.689,265.33Zm4.923,30.142a4.523,4.523,0,0,1-.95,3.242,4.3,4.3,0,0,1-3.149.963,8.062,8.062,0,0,1-6.124-2.23q-2.124-2.228-2.124-6.484V272.042h1.95a4.937,4.937,0,0,1,3.6,1.267,5.23,5.23,0,0,1,1.3,3.9v13.1a3.6,3.6,0,0,0,.95,2.9,5.229,5.229,0,0,0,3.249.772h1.3Z" transform="translate(-385.546 -261.302)" fill="#ff921c"/>
    <path id="Path_2861" data-name="Path 2861" d="M548.377,285.524a17.824,17.824,0,0,1-.975,5.927,14.724,14.724,0,0,1-2.736,4.825,12.853,12.853,0,0,1-4.324,3.242,13.213,13.213,0,0,1-5.686,1.2,12.366,12.366,0,0,1-9.135-3.977,14.492,14.492,0,0,1-2.812-4.522,15.431,15.431,0,0,1-1.05-5.788V262.727h2.35a4.589,4.589,0,0,1,3.262,1.178,4.785,4.785,0,0,1,1.262,3.66V275.7a11.407,11.407,0,0,1,1.212-1.52,8.662,8.662,0,0,1,1.638-1.355,9.076,9.076,0,0,1,2.074-.975,8.1,8.1,0,0,1,2.55-.38,11.722,11.722,0,0,1,4.874,1.026,11.565,11.565,0,0,1,3.936,2.9,13.868,13.868,0,0,1,2.612,4.445A16.307,16.307,0,0,1,548.377,285.524Zm-7.1,1.19a17.89,17.89,0,0,0-.437-4.294,7.3,7.3,0,0,0-1.287-2.8,4.839,4.839,0,0,0-2.074-1.533,7.885,7.885,0,0,0-2.825-.469,4.853,4.853,0,0,0-2.424.621,6.432,6.432,0,0,0-1.912,1.66,7.874,7.874,0,0,0-1.274,2.495,10.012,10.012,0,0,0-.463,3.053q0,4.838,1.863,6.966a6.235,6.235,0,0,0,4.936,2.128,4.77,4.77,0,0,0,2.35-.6,6.071,6.071,0,0,0,1.874-1.635,7.68,7.68,0,0,0,1.237-2.47A10.659,10.659,0,0,0,541.279,286.714Z" transform="translate(-399.769 -261.967)" fill="#ff921c"/>
    <path id="Path_2862" data-name="Path 2862" d="M602.893,289.954a5.378,5.378,0,0,1-3.075,5.307q-3.074,1.481-9.873,1.481h-4.5a6.143,6.143,0,0,0,2.525,4.192,8.549,8.549,0,0,0,5.2,1.558,19.624,19.624,0,0,0,4.474-.544,8.557,8.557,0,0,0,3.974-2.09h.25v2.179a6.252,6.252,0,0,1-.487,2.482,4.87,4.87,0,0,1-1.662,2,9.026,9.026,0,0,1-3.1,1.355,19.326,19.326,0,0,1-4.724.494,13.517,13.517,0,0,1-9.372-3.825,13.977,13.977,0,0,1-4.2-10.234,18.842,18.842,0,0,1,1-6.319,14.04,14.04,0,0,1,2.787-4.8,11.976,11.976,0,0,1,4.274-3.027,13.894,13.894,0,0,1,5.461-1.052,11.659,11.659,0,0,1,4.136.748,10.921,10.921,0,0,1,3.524,2.14,10.36,10.36,0,0,1,2.462,3.42A10.8,10.8,0,0,1,602.893,289.954Zm-6.449-.836a3.672,3.672,0,0,0-1.412-3.166,6.3,6.3,0,0,0-3.811-1.039,5.277,5.277,0,0,0-2.274.494,6.178,6.178,0,0,0-1.825,1.292,5.594,5.594,0,0,0-1.2,1.887,7.043,7.043,0,0,0-.476,2.279l-.05.937h3.049q2.474,0,4.011-.152a10.5,10.5,0,0,0,2.424-.469,2.33,2.33,0,0,0,1.224-.836A2.2,2.2,0,0,0,596.444,289.118Z" transform="translate(-426.617 -269.615)" fill="#ff921c"/>
    <path id="Path_2863" data-name="Path 2863" d="M648.665,286.82a16.132,16.132,0,0,0-1.724-.557,8.91,8.91,0,0,0-2.274-.254,4.482,4.482,0,0,0-3.524,1.368q-1.225,1.368-1.225,4.585v16.084h-1.9a5.526,5.526,0,0,1-3.661-1.139,4.082,4.082,0,0,1-1.362-3.319V290.721a15.015,15.015,0,0,1,.563-4.079,9.489,9.489,0,0,1,1.787-3.5,9.159,9.159,0,0,1,3.174-2.432,10.705,10.705,0,0,1,4.674-.937,7.544,7.544,0,0,1,2.674.419,5.049,5.049,0,0,1,1.762,1.064,4.031,4.031,0,0,1,.974,1.469,4.516,4.516,0,0,1,.313,1.608v2.482Z" transform="translate(-452.52 -269.925)" fill="#ff921c"/>
  </g>
  <g id="Group_1470" data-name="Group 1470">
    <path id="Path_2864" data-name="Path 2864" d="M185.846,284.959a7.3,7.3,0,1,0,7.206,7.3A7.253,7.253,0,0,0,185.846,284.959Z" transform="translate(-178.64 -257.643)" fill="#ff921c"/>
    <path id="Path_2865" data-name="Path 2865" d="M255.736,267.616a47.512,47.512,0,0,1-14.494,34.276L238.392,299l.062-.083a36.954,36.954,0,0,0,6.574-28.8c-.169-.921-.38-1.827-.616-2.727a35.973,35.973,0,0,0-10.78-25.547l8.007-8.114A47.459,47.459,0,0,1,255.736,267.616Z" transform="translate(-204.695 -233.736)" fill="#ff921c"/>
    <path id="Path_2866" data-name="Path 2866" d="M240.012,281.8a35.837,35.837,0,0,0-15.459-23.334,33.249,33.249,0,0,1,7.73,21.424,33.588,33.588,0,0,1-.4,5.185q-.139.89-.324,1.764a36.625,36.625,0,0,1-.842,16.646c-.267.921-.565,1.827-.909,2.717l3.765,3.815a36.255,36.255,0,0,0,6.44-28.217Z" transform="translate(-200.394 -245.279)" fill="#ff921c"/>
    <path id="Path_2867" data-name="Path 2867" d="M213.135,255.626c-.235-.134-.476-.264-.716-.394l-3.248,3.289-2.9,2.939-1.212,1.223a21.912,21.912,0,0,1,.436,30.96l7.519,7.62a32.569,32.569,0,0,0,8.911-17.812,32.991,32.991,0,0,0,.39-5.07A32.6,32.6,0,0,0,213.135,255.626Z" transform="translate(-191.159 -243.769)" fill="#ff921c"/>
    <path id="Path_2868" data-name="Path 2868" d="M206.274,264.384l2.847-2.888-4.059,4.111Z" transform="translate(-191.159 -246.693)" fill="#ff921c"/>
    <line id="Line_83" data-name="Line 83" x1="7.519" y1="7.62" transform="translate(14.339 49.875)" fill="#ffd600"/>
    <path id="Path_2869" data-name="Path 2869" d="M241.672,355.212,238.3,351.8l-3.765-3.815" transform="translate(-205.125 -287.057)" fill="#ff921c"/>
  </g>
  <g id="Group_1471" data-name="Group 1471" transform="translate(86.002 58.867)">
    <path id="Path_2870" data-name="Path 2870" d="M342.081,363.152l.331-.821a2.61,2.61,0,0,0,1.178.28,2.352,2.352,0,0,0,1.932-.933l.847-1.268-2.153-9.922h.976l1.877,8.785,5.337-8.785h.993l-6.68,10.986a3.6,3.6,0,0,1-3.147,2.014A3.209,3.209,0,0,1,342.081,363.152Z" transform="translate(-342.081 -347.094)" fill="#ff921c"/>
    <path id="Path_2871" data-name="Path 2871" d="M364.25,355.5a5.327,5.327,0,0,0-.037.541,3.031,3.031,0,0,0,3.037,3.264,5.536,5.536,0,0,0,3.588-1.306l.5.691a6.9,6.9,0,0,1-4.233,1.473,3.787,3.787,0,0,1-3.791-4.048,6.207,6.207,0,0,1,5.815-6.043c1.932,0,3.4,1.064,3.4,2.649,0,1.7-1.656,2.779-4.472,2.779Zm.184-.858h3.791c2.153,0,3.423-.69,3.423-1.865,0-1.1-1.1-1.846-2.631-1.846A5.084,5.084,0,0,0,364.434,354.638Z" transform="translate(-352.14 -346.898)" fill="#ff921c"/>
    <path id="Path_2872" data-name="Path 2872" d="M390.671,352.866c0,.6-.111.914-1.38,7.069h-.9c1.214-5.913,1.343-6.322,1.343-6.863a2.029,2.029,0,0,0-2.208-2.144,3.791,3.791,0,0,0-3.607,2.667l-1.307,6.341h-.9l1.987-9.642h.9l-.331,1.585a4.111,4.111,0,0,1,3.423-1.809A2.717,2.717,0,0,1,390.671,352.866Z" transform="translate(-360.857 -346.898)" fill="#ff921c"/>
    <path id="Path_2873" data-name="Path 2873" d="M402.688,347.55h.9l-1.987,9.642h-.9Zm.276-2.592a.786.786,0,0,1,.736-.765.579.579,0,0,1,.608.6.8.8,0,0,1-.736.764A.579.579,0,0,1,402.964,344.958Z" transform="translate(-369.855 -344.156)" fill="#ff921c"/>
    <path id="Path_2874" data-name="Path 2874" d="M425.367,352.866c0,.6-.11.914-1.381,7.069h-.9c1.214-5.913,1.343-6.322,1.343-6.863a2.029,2.029,0,0,0-2.209-2.144,3.79,3.79,0,0,0-3.607,2.667l-1.307,6.341h-.9l1.988-9.642h.9l-.332,1.585a4.111,4.111,0,0,1,3.423-1.809A2.717,2.717,0,0,1,425.367,352.866Z" transform="translate(-377.295 -346.898)" fill="#ff921c"/>
    <path id="Path_2875" data-name="Path 2875" d="M437.1,355.5a5.344,5.344,0,0,0-.037.541A3.031,3.031,0,0,0,440.1,359.3a5.539,5.539,0,0,0,3.589-1.306l.5.691a6.9,6.9,0,0,1-4.233,1.473,3.787,3.787,0,0,1-3.791-4.048,6.207,6.207,0,0,1,5.816-6.043c1.932,0,3.4,1.064,3.4,2.649,0,1.7-1.656,2.779-4.472,2.779Zm.184-.858h3.791c2.153,0,3.423-.69,3.423-1.865,0-1.1-1.1-1.846-2.632-1.846A5.085,5.085,0,0,0,437.288,354.638Z" transform="translate(-386.659 -346.898)" fill="#ff921c"/>
    <path id="Path_2876" data-name="Path 2876" d="M453.934,358.7l.589-.653a5.026,5.026,0,0,0,3.147,1.25c1.417,0,2.908-.858,2.908-2.107,0-.747-.644-1.25-2.153-1.791-1.914-.579-2.724-1.269-2.724-2.313,0-1.79,1.822-3.022,3.717-3.022a5.7,5.7,0,0,1,3.239,1.1l-.589.671a4.715,4.715,0,0,0-2.687-.913c-1.472,0-2.76.895-2.76,1.958,0,.671.662,1.175,2.245,1.772,1.858.6,2.632,1.287,2.632,2.387,0,1.791-1.951,3.115-3.865,3.115A5.446,5.446,0,0,1,453.934,358.7Z" transform="translate(-395.077 -346.898)" fill="#ff921c"/>
    <path id="Path_2877" data-name="Path 2877" d="M472.814,347.55h.9l-1.987,9.642h-.9Zm.276-2.592a.786.786,0,0,1,.736-.765.579.579,0,0,1,.607.6.8.8,0,0,1-.736.764A.579.579,0,0,1,473.09,344.958Z" transform="translate(-403.081 -344.156)" fill="#ff921c"/>
    <path id="Path_2878" data-name="Path 2878" d="M479.79,344.123h.9l-2.668,13.037h-.9Z" transform="translate(-406.064 -344.123)" fill="#ff921c"/>
    <path id="Path_2879" data-name="Path 2879" d="M494.743,347.55h.9l-1.987,9.642h-.9Zm.276-2.592a.786.786,0,0,1,.736-.765.579.579,0,0,1,.607.6.8.8,0,0,1-.736.764A.579.579,0,0,1,495.02,344.958Z" transform="translate(-413.471 -344.156)" fill="#ff921c"/>
    <path id="Path_2880" data-name="Path 2880" d="M508.014,352.866c0,.6-.111.914-1.38,7.069h-.9c1.214-5.913,1.343-6.322,1.343-6.863a2.029,2.029,0,0,0-2.208-2.144,3.791,3.791,0,0,0-3.607,2.667l-1.306,6.341h-.9l1.987-9.642h.9l-.331,1.585a4.11,4.11,0,0,1,3.423-1.809A2.717,2.717,0,0,1,508.014,352.866Z" transform="translate(-416.454 -346.898)" fill="#ff921c"/>
    <path id="Path_2881" data-name="Path 2881" d="M522.7,349.028c-1.38,6.715-1.418,6.733-1.418,7.05,0,.672.35,1.1.883,1.1a2.286,2.286,0,0,0,1.362-.485l.405.746a3.474,3.474,0,0,1-1.859.6,1.662,1.662,0,0,1-1.692-1.847c0-.485.091-.82,1.416-7.162h-1.619l.165-.858h1.619l.553-2.648h.9l-.552,2.648h2.448l-.184.858Z" transform="translate(-426.463 -344.776)" fill="#ff921c"/>
    <path id="Path_2882" data-name="Path 2882" d="M531.818,355.5c-.018.187-.036.354-.036.541a3.031,3.031,0,0,0,3.036,3.264,5.538,5.538,0,0,0,3.589-1.306l.5.691a6.9,6.9,0,0,1-4.233,1.473,3.787,3.787,0,0,1-3.791-4.048,6.207,6.207,0,0,1,5.815-6.043c1.932,0,3.4,1.064,3.4,2.649,0,1.7-1.656,2.779-4.471,2.779Zm.185-.858h3.791c2.153,0,3.423-.69,3.423-1.865,0-1.1-1.1-1.846-2.631-1.846A5.084,5.084,0,0,0,532,354.638Z" transform="translate(-431.535 -346.898)" fill="#ff921c"/>
    <path id="Path_2883" data-name="Path 2883" d="M556.075,350.068l-.128.859a4.564,4.564,0,0,0-4.417,3.487l-1.141,5.521h-.9l1.987-9.642h.9l-.405,2A4.6,4.6,0,0,1,556.075,350.068Z" transform="translate(-440.35 -346.898)" fill="#ff921c"/>
    <path id="Path_2884" data-name="Path 2884" d="M570.166,352.866c0,.6-.111.914-1.38,7.069h-.9c1.214-5.913,1.343-6.322,1.343-6.863a2.028,2.028,0,0,0-2.208-2.144,3.791,3.791,0,0,0-3.607,2.667l-1.306,6.341h-.9l1.987-9.642h.9l-.331,1.585a4.111,4.111,0,0,1,3.423-1.809A2.717,2.717,0,0,1,570.166,352.866Z" transform="translate(-445.902 -346.898)" fill="#ff921c"/>
    <path id="Path_2885" data-name="Path 2885" d="M581.9,355.5c-.018.187-.036.354-.036.541A3.031,3.031,0,0,0,584.9,359.3a5.539,5.539,0,0,0,3.589-1.306l.5.691a6.9,6.9,0,0,1-4.233,1.473,3.787,3.787,0,0,1-3.791-4.048,6.207,6.207,0,0,1,5.816-6.043c1.932,0,3.4,1.064,3.4,2.649,0,1.7-1.656,2.779-4.472,2.779Zm.184-.858h3.791c2.153,0,3.423-.69,3.423-1.865,0-1.1-1.1-1.846-2.631-1.846A5.085,5.085,0,0,0,582.087,354.638Z" transform="translate(-455.265 -346.898)" fill="#ff921c"/>
    <path id="Path_2886" data-name="Path 2886" d="M603.947,349.028c-1.38,6.715-1.417,6.733-1.417,7.05,0,.672.35,1.1.884,1.1a2.288,2.288,0,0,0,1.362-.485l.4.746a3.474,3.474,0,0,1-1.859.6,1.662,1.662,0,0,1-1.692-1.847c0-.485.091-.82,1.416-7.162h-1.619l.165-.858h1.619l.553-2.648h.9l-.553,2.648h2.448l-.184.858Z" transform="translate(-464.959 -344.776)" fill="#ff921c"/>
  </g>
</svg>
