<svg id="Icon_Copy_2" data-name="Icon Copy 2" xmlns="http://www.w3.org/2000/svg" width="70" height="70" viewBox="0 0 70 70">
  <rect id="Rectangle" width="70" height="70" rx="35" fill="#ffceac" opacity="0.15"/>
  <g id="Iconly_Bulk_Chart" data-name="Iconly/Bulk/Chart" transform="translate(7.078 7.078)">
    <rect id="Iconly_Bulk_Chart-2" data-name="Iconly/Bulk/Chart" width="55.845" height="55.845" fill="none"/>
    <g id="Graph" transform="translate(4.654 4.654)">
      <path id="Path" d="M18.97,1.5a2.467,2.467,0,0,1,.232.765L19.85,11.9h0l.322,4.842a4.978,4.978,0,0,0,.232,1.468,2.427,2.427,0,0,0,2.339,1.468l15.491-1.013a2.556,2.556,0,0,1,1.8.7,2.466,2.466,0,0,1,.743,1.417l.027.326A20.2,20.2,0,0,1,24.787,39.293a20.607,20.607,0,0,1-22.318-9.92A19.114,19.114,0,0,1,.15,22.053,14,14,0,0,1,0,19.758,20.234,20.234,0,0,1,16.252.031,2.539,2.539,0,0,1,18.97,1.5Z" transform="translate(0 6.774)" fill="#ff8735"/>
      <path id="Path-2" data-name="Path" d="M1.976,0A21.975,21.975,0,0,1,23.22,18.178l-.016.076h0l-.047.11.007.3a1.862,1.862,0,0,1-.446,1.1,1.925,1.925,0,0,1-1.076.632l-.255.035L3.514,21.59a2.133,2.133,0,0,1-1.628-.527,2.056,2.056,0,0,1-.67-1.25L.016,1.966a.284.284,0,0,1,0-.186A1.826,1.826,0,0,1,.617.489,1.9,1.9,0,0,1,1.976,0Z" transform="translate(23.317 0)" fill="#ff8735" opacity="0.4"/>
    </g>
  </g>
</svg>
