<svg xmlns="http://www.w3.org/2000/svg" width="34" height="34" viewBox="0 0 34 34">
  <g id="Group_8252" data-name="Group 8252" transform="translate(-421 -1450)">
    <g id="Group_1473" data-name="Group 1473">
      <path id="Path_2887" data-name="Path 2887" d="M17,0C30.194,0,34,3.806,34,17S30.194,34,17,34,0,30.194,0,17,3.806,0,17,0Z" transform="translate(421 1450)" fill="#f9f7fa"/>
    </g>
    <g id="bolt-circle-alt" transform="translate(-254 1219)">
      <rect id="Frame" width="24" height="24" transform="translate(680 236)" fill="#ff6c02" opacity="0"/>
      <path id="bolt-circle-alt-2" data-name="bolt-circle-alt" d="M691.842,237.25a10.592,10.592,0,0,0,0,21.184,10.728,10.728,0,0,0,8.588-4.4,10.308,10.308,0,0,0,2-6.194A10.6,10.6,0,0,0,691.842,237.25Zm0,19.706a9.114,9.114,0,1,1,9.114-9.114A9.124,9.124,0,0,1,691.842,256.956Zm4.215-10.455h-2.272v-4.078a.739.739,0,0,0-1.288-.495l-5.419,6.021a.739.739,0,0,0,.549,1.234H689.9v4.078a.739.739,0,0,0,1.288.495l5.419-6.021a.739.739,0,0,0-.549-1.234Zm-4.68,4.835v-2.892a.739.739,0,0,0-.739-.739h-1.352l3.021-3.357v2.892a.739.739,0,0,0,.739.739H694.4Z" transform="translate(-0.018 -0.018)" fill="#ff6c02"/>
    </g>
  </g>
</svg>
