<svg xmlns="http://www.w3.org/2000/svg" width="55" height="55" viewBox="0 0 55 55">
  <g id="Group_8152" data-name="Group 8152" transform="translate(-120 -1505)">
    <g id="Apps-callories" transform="translate(120 1505)">
      <rect id="Rectangle" width="55" height="55" rx="27.5" fill="#ffceac" opacity="0.25"/>
      <path id="Flame_Fill" data-name="Flame Fill" d="M12,32A12,12,0,0,1,0,19.986c0-2.654,0-8.869,4.686-13.458A4.939,4.939,0,0,0,5.916,10.4a5.353,5.353,0,0,0,3.894,1.533,5.864,5.864,0,0,0,1.316-.146,5.385,5.385,0,0,0,1.942-.9,5.894,5.894,0,0,0,1.686-1.924,7.725,7.725,0,0,0,.9-3.629A15.183,15.183,0,0,0,14.649,0a25.424,25.424,0,0,1,8.182,11.926A25.836,25.836,0,0,1,24,19.986,11.993,11.993,0,0,1,12,32Zm.012-15.1A6.879,6.879,0,0,0,7.16,18.877a6.658,6.658,0,0,0,0,9.534,6.948,6.948,0,0,0,9.7,0,6.658,6.658,0,0,0,0-9.534A6.879,6.879,0,0,0,12.012,16.9Z" transform="translate(15 12)" fill="#ff8735"/>
    </g>
  </g>
</svg>
