<svg xmlns="http://www.w3.org/2000/svg" width="34" height="34" viewBox="0 0 34 34">
  <g id="Group_8253" data-name="Group 8253" transform="translate(-421 -1450)">
    <path id="Path_2887" data-name="Path 2887" d="M17,0C30.194,0,34,3.806,34,17S30.194,34,17,34,0,30.194,0,17,3.806,0,17,0Z" transform="translate(421 1450)" fill="#f9f7fa"/>
    <g id="receipt-list" transform="translate(-730 1107)">
      <rect id="Frame" width="24" height="24" transform="translate(1156 348)" fill="#ff6c02" opacity="0"/>
      <path id="receipt-list-2" data-name="receipt-list" d="M1168,369.749a2.242,2.242,0,0,1-1.591-.658l-2.019-2.019a.756.756,0,0,0-.982-.07l-1.358,1.019a1.75,1.75,0,0,1-2.8-1.4V354a3.383,3.383,0,0,1,3.75-3.75h10a3.383,3.383,0,0,1,3.75,3.75v12.621a1.75,1.75,0,0,1-2.8,1.4L1172.591,367a.754.754,0,0,0-.981.07l-2.019,2.019A2.242,2.242,0,0,1,1168,369.749Zm-4.144-4.393a2.247,2.247,0,0,1,1.594.655l2.02,2.019a.768.768,0,0,0,1.06,0l2.02-2.019h0a2.26,2.26,0,0,1,2.94-.209l1.361,1.019a.236.236,0,0,0,.261.024.241.241,0,0,0,.138-.224V354c0-1.577-.673-2.25-2.25-2.25h-10c-1.577,0-2.25.673-2.25,2.25v12.621a.241.241,0,0,0,.138.224.236.236,0,0,0,.261-.024l1.36-1.019A2.242,2.242,0,0,1,1163.856,365.356ZM1172.75,357a.75.75,0,0,0-.75-.75h-5a.75.75,0,0,0,0,1.5h5A.75.75,0,0,0,1172.75,357Zm0,4a.75.75,0,0,0-.75-.75h-5a.75.75,0,0,0,0,1.5h5A.75.75,0,0,0,1172.75,361Zm-8.75-4.75a.75.75,0,1,0,.75.75A.75.75,0,0,0,1164,356.25Zm0,4a.75.75,0,1,0,.75.75A.75.75,0,0,0,1164,360.25Z" fill="#ff6c02"/>
    </g>
  </g>
</svg>
