<svg xmlns="http://www.w3.org/2000/svg" width="34" height="34" viewBox="0 0 34 34">
  <g id="Group_8253" data-name="Group 8253" transform="translate(-421 -1450)">
    <path id="Path_2887" data-name="Path 2887" d="M17,0C30.194,0,34,3.806,34,17S30.194,34,17,34,0,30.194,0,17,3.806,0,17,0Z" transform="translate(421 1450)" fill="#f9f7fa"/>
    <path id="rocket-launch" d="M405.957,420.137a2.555,2.555,0,0,0-1.832.76h0c-.837.837-1.627,3.633-1.849,4.469a.775.775,0,0,0,.747.972.8.8,0,0,0,.184-.023c.8-.2,3.492-.9,4.333-1.744a2.608,2.608,0,0,0,.149-3.674A2.536,2.536,0,0,0,405.957,420.137Zm.49,3.342a7.854,7.854,0,0,1-2.29.971,8.948,8.948,0,0,1,1.06-2.459.941.941,0,0,1,.7-.308,1,1,0,0,1,.677.308A1.071,1.071,0,0,1,406.447,423.48Zm7.393-11.821a3.091,3.091,0,1,0,3.091,3.091A3.095,3.095,0,0,0,413.841,411.659Zm0,4.636a1.545,1.545,0,1,1,1.545-1.545A1.547,1.547,0,0,1,413.841,416.3Zm8.5-9.273a.773.773,0,0,0-.773-.773c-5.112,0-9.147,1.538-11.795,4.361l-1.949.327a5.905,5.905,0,0,0-4.529,3.638l-.989,2.461a.773.773,0,0,0,.717,1.061.837.837,0,0,0,.151-.014l3.33-.665-.005.025a2.3,2.3,0,0,0,.654,2.013l1.98,1.981a2.323,2.323,0,0,0,1.636.686,2.211,2.211,0,0,0,.377-.033l.026-.005-.665,3.33a.772.772,0,0,0,1.045.869l2.459-.987a5.91,5.91,0,0,0,3.641-4.527l.327-1.953C420.8,416.17,422.341,412.135,422.341,407.023Zm-2.1,4.61a6.472,6.472,0,0,0-3.283-3.283,19.134,19.134,0,0,1,3.821-.539A19.129,19.129,0,0,1,420.241,411.632Zm-15.97,4.656.46-1.141a4.352,4.352,0,0,1,3.344-2.685l.312-.053a13.175,13.175,0,0,0-1.49,3.354Zm6.611,4.281a.773.773,0,0,1-.657-.224l-1.98-1.981a.76.76,0,0,1-.224-.656h0a10.8,10.8,0,0,1,6.14-8.359c.066,0,.129-.008.195-.008a4.9,4.9,0,0,1,4.894,4.894c0,.061,0,.124-.005.188A10.8,10.8,0,0,1,410.883,420.569Zm5.245-.049a4.358,4.358,0,0,1-2.688,3.342l-1.137.456.523-2.625a13.1,13.1,0,0,0,3.355-1.491Z" transform="translate(25.705 1051.22)" fill="#ff6c02"/>
  </g>
</svg>
